<?xml version="1.0" standalone="no"?>
<!DOCTYPE svg PUBLIC "-//W3C//DTD SVG 20010904//EN"
 "http://www.w3.org/TR/2001/REC-SVG-20010904/DTD/svg10.dtd">
<svg version="1.0" xmlns="http://www.w3.org/2000/svg"
 width="700.000000pt" height="700.000000pt" viewBox="0 0 700.000000 700.000000"
 preserveAspectRatio="xMidYMid meet">
<metadata>
Created by potrace 1.11, written by Peter Selinger 2001-2013
</metadata>
<g transform="translate(0.000000,700.000000) scale(0.100000,-0.100000)"
fill="#000000" stroke="none">
<path d="M425 6962 c2 -20 7 -73 10 -117 3 -44 8 -91 10 -105 2 -14 7 -59 10
-100 3 -41 7 -95 10 -120 4 -47 14 -157 20 -225 2 -22 6 -71 10 -110 3 -38 8
-86 10 -105 2 -19 7 -71 10 -115 3 -44 8 -93 10 -110 3 -16 7 -59 10 -95 9
-120 16 -205 20 -237 3 -17 7 -64 10 -105 3 -40 7 -91 10 -113 2 -22 7 -71 10
-110 3 -38 8 -88 10 -110 2 -22 7 -71 10 -110 3 -38 8 -88 10 -110 2 -22 7
-67 10 -100 2 -33 7 -85 10 -115 3 -30 7 -86 11 -125 3 -38 7 -86 9 -105 2
-19 6 -66 10 -105 3 -38 8 -88 10 -110 2 -22 7 -74 10 -115 3 -41 8 -88 10
-105 2 -16 7 -66 10 -110 4 -44 8 -93 10 -110 10 -104 16 -167 20 -220 3 -33
8 -84 10 -112 3 -29 7 -79 10 -110 3 -32 7 -82 10 -110 6 -62 13 -141 20 -215
6 -68 16 -184 20 -223 2 -16 6 -66 10 -110 3 -44 8 -93 10 -110 2 -16 7 -64
10 -105 3 -41 7 -93 10 -115 2 -22 7 -71 10 -110 3 -38 8 -88 10 -110 3 -22 7
-69 10 -105 6 -76 14 -169 20 -225 2 -22 7 -71 10 -110 4 -38 8 -90 10 -115 3
-25 7 -74 10 -110 3 -36 8 -83 10 -105 2 -22 7 -68 10 -103 10 -116 16 -187
20 -222 2 -19 7 -71 11 -115 3 -44 7 -89 9 -100 1 -11 3 -37 4 -58 0 -21 7
-39 14 -42 6 -2 109 -31 227 -64 118 -33 334 -93 480 -135 146 -41 364 -102
485 -136 121 -34 258 -72 305 -86 47 -13 108 -31 135 -39 28 -8 172 -48 320
-90 308 -86 339 -94 453 -128 l84 -25 116 33 c115 33 648 183 1032 291 107 30
215 61 240 69 58 17 201 57 220 60 8 2 16 4 18 5 1 2 5 3 10 4 14 4 102 29
427 121 182 51 358 101 393 110 36 10 63 23 63 31 1 8 2 17 3 22 2 6 8 76 21
227 12 133 16 187 21 230 10 110 13 143 19 215 4 41 8 91 10 110 2 19 6 69 10
110 3 41 8 91 10 110 2 19 7 67 10 105 5 67 11 130 20 225 3 25 7 74 10 110 3
36 8 90 10 120 3 30 7 80 10 110 3 30 7 75 10 100 2 25 7 79 10 120 3 41 8 91
10 110 2 19 7 69 10 110 3 41 8 91 10 110 6 53 17 169 20 220 3 40 6 72 20
230 4 43 8 81 20 215 6 70 13 144 20 218 8 83 14 147 20 227 3 41 8 86 10 100
2 14 6 66 10 115 4 50 8 104 10 120 4 29 13 133 21 225 2 25 6 70 8 100 3 30
8 84 11 120 3 36 8 81 10 100 2 19 7 71 10 115 4 44 8 94 9 110 2 17 6 68 10
115 4 47 9 101 11 120 8 70 14 137 20 210 3 41 8 91 10 110 2 19 6 73 10 120
3 47 8 96 10 110 2 14 6 57 10 95 3 39 8 93 10 120 9 96 15 165 20 220 3 30 7
81 10 113 3 31 8 82 10 112 3 30 7 75 9 100 3 25 8 83 12 130 5 47 8 96 9 110
l0 25 -3077 2 -3078 3 5 -38z m2845 -3372 c0 -1343 -3 -2060 -10 -2060 -9 0
-197 49 -270 70 -19 6 -134 37 -255 70 -121 32 -380 102 -575 154 -195 53
-398 107 -450 121 -52 14 -117 32 -145 40 -27 8 -61 17 -75 20 l-26 6 -2 361
c-1 198 0 364 3 368 2 4 93 -17 202 -47 109 -30 209 -57 223 -59 14 -3 44 -11
67 -19 23 -8 52 -17 65 -19 32 -7 75 -19 208 -56 63 -17 122 -33 130 -36 8 -2
31 -8 50 -13 187 -50 233 -62 236 -59 1 2 5 726 8 1608 2 883 5 1606 5 1608 1
1 138 2 306 2 l305 0 0 -2060z m2446 2023 c-3 -21 -8 -85 -12 -143 -3 -58 -7
-121 -9 -140 -1 -19 -6 -87 -10 -150 -5 -63 -9 -126 -11 -140 -1 -14 -2 -48
-3 -75 l-1 -51 -342 -1 c-189 -1 -484 -2 -655 -2 l-313 -1 0 -541 c0 -297 3
-538 8 -536 4 3 41 8 82 12 41 5 82 9 90 10 8 1 47 5 85 9 39 4 81 9 95 12 14
2 57 6 95 10 39 3 77 7 85 9 8 3 47 7 85 10 39 3 81 8 95 10 14 3 52 7 85 10
33 3 74 7 90 10 17 2 57 7 90 10 33 3 71 8 85 10 14 3 54 7 89 10 l64 7 -8
-99 c-3 -54 -8 -114 -10 -133 -4 -42 -15 -185 -20 -254 -2 -27 -6 -81 -10
-120 -6 -69 -8 -95 -19 -221 -3 -33 -8 -94 -11 -135 -3 -41 -7 -95 -10 -120
-2 -25 -7 -83 -11 -130 -4 -47 -8 -98 -9 -115 -1 -16 -6 -68 -9 -115 -4 -47
-9 -107 -11 -134 -3 -27 -7 -81 -10 -120 -3 -39 -8 -91 -10 -116 -2 -25 -7
-79 -10 -120 -4 -41 -10 -78 -13 -81 -6 -5 -113 -34 -232 -63 -42 -10 -760
-198 -790 -206 -19 -6 -111 -30 -205 -54 -93 -25 -215 -56 -270 -71 -137 -36
-155 -39 -156 -23 0 7 -3 171 -6 363 l-5 351 484 128 c265 71 532 142 592 157
61 16 113 32 117 36 8 8 24 485 20 570 -1 21 -5 22 -38 17 -21 -3 -45 -7 -53
-9 -8 -3 -33 -7 -55 -10 -22 -3 -76 -12 -120 -20 -44 -8 -96 -17 -115 -20 -19
-3 -57 -10 -85 -15 -27 -5 -63 -12 -80 -14 -53 -9 -438 -75 -525 -91 -47 -8
-92 -15 -102 -15 -15 0 -16 28 -18 298 -1 163 -3 430 -5 592 -2 162 -6 629
-10 1037 l-7 742 93 3 c52 2 496 4 987 6 l893 3 -5 -38z m-1631 -4963 c-27
-12 -43 -12 -25 0 8 5 22 9 30 9 10 0 8 -3 -5 -9z m-98 -26 c-3 -3 -12 -4 -19
-1 -8 3 -5 6 6 6 11 1 17 -2 13 -5z m-140 -40 c-3 -3 -12 -4 -19 -1 -8 3 -5 6
6 6 11 1 17 -2 13 -5z m-132 -34 c-11 -5 -27 -9 -35 -9 -9 0 -8 4 5 9 11 5 27
9 35 9 9 0 8 -4 -5 -9z m-58 -16 c-3 -3 -12 -4 -19 -1 -8 3 -5 6 6 6 11 1 17
-2 13 -5z m-102 -24 c-3 -5 -12 -10 -18 -10 -7 0 -6 4 3 10 19 12 23 12 15 0z"/>
</g>
</svg>
